<?xml version="1.0" encoding="UTF-8"?>
<svg xmlns="http://www.w3.org/2000/svg" viewBox="0 0 76.9 45.29">
  <defs>
    <style>
      .cls-1 {
        fill: #cfae71;
      }

      .cls-1, .cls-2, .cls-3 {
        stroke-width: 0px;
      }

      .cls-4 {
        isolation: isolate;
      }

      .cls-2 {
        fill: #b92c2c;
      }

      .cls-3 {
        fill: #fff;
      }

      .cls-5 {
        mix-blend-mode: overlay;
        opacity: .1;
      }
    </style>
  </defs>
  <g class="cls-4">
    <g id="Layer_2" data-name="Layer 2">
      <g id="Layer_1-2" data-name="Layer 1">
        <g id="_R_G" data-name=" R G" class="cls-5">
          <g id="_R_G_L_0_G" data-name=" R G L 0 G">
            <g id="_R_G_L_0_G_L_0_G" data-name=" R G L 0 G L 0 G">
              <path id="_R_G_L_0_G_L_0_G_D_0_P_0" data-name=" R G L 0 G L 0 G D 0 P 0" class="cls-3" d="m51.68,15.07c3.79-.56,4.62-2.53,4.62-5.9v-3.55C56.3,1.88,53.32,0,47.32,0s-8.98,1.88-8.98,5.61v4.19c0,2.94.65,4.48,4.11,5.06-3.46.77-4.11,2.92-4.11,6.06v4.59c0,3.78,2.99,5.66,8.98,5.66s8.98-1.88,8.98-5.66v-4.55c0-3.46-.83-5.43-4.62-5.9Zm-4.4-1.97c-1.32,0-1.97-.64-1.97-1.88v-5.97c0-1.22.65-1.81,1.97-1.81s2.02.61,2.02,1.81v5.97c0,1.24-.67,1.88-2.02,1.88Zm0,14.45c-1.32,0-1.97-.63-1.97-1.88v-6.76c0-1.29.65-1.92,1.97-1.92s2.02.63,2.02,1.92v6.76c0,1.24-.67,1.88-2.02,1.88Z"/>
              <path id="_R_G_L_0_G_L_0_G_D_1_P_0" data-name=" R G L 0 G L 0 G D 1 P 0" class="cls-3" d="m72.27,15.07c3.79-.56,4.63-2.53,4.63-5.9v-3.55C76.9,1.88,73.91,0,67.91,0s-8.99,1.88-8.99,5.61v4.19c0,2.94.65,4.48,4.11,5.06-3.46.77-4.11,2.92-4.11,6.06v4.59c0,3.78,2.99,5.66,8.99,5.66s8.99-1.88,8.99-5.66v-4.55c0-3.46-.83-5.43-4.63-5.9Zm-4.4-1.97c-1.33,0-1.98-.64-1.98-1.88v-5.97c0-1.22.65-1.81,1.98-1.81s2.02.61,2.02,1.81v5.97c.02,1.24-.65,1.88-2.02,1.88Zm0,14.45c-1.33,0-1.98-.63-1.98-1.88v-6.76c0-1.29.65-1.92,1.98-1.92s2.02.63,2.02,1.92v6.76c.02,1.24-.65,1.88-2.02,1.88Z"/>
              <path id="_R_G_L_0_G_L_0_G_D_2_P_0" data-name=" R G L 0 G L 0 G D 2 P 0" class="cls-3" d="m13.92,45.05v-.58c-1.29-.14-1.37-.25-1.4-1.78l-.15-6.2c-.04-1.38.03-1.51,1.35-1.64v-.58h-3.32l-3.24,7.26-3.19-7.26H.55v.58c1.42.13,1.54.36,1.4,2.26l-.26,3.27c-.12,1.74-.25,2.61-.35,3.13-.1.58-.41.88-1.34.96v.58h3.97v-.58c-1.09-.1-1.42-.25-1.48-1-.07-.52-.07-1.29,0-2.67l.2-4.33h.07l3.37,8.46h.46l3.65-8.63h.08l.03,6.38c.02,1.53-.08,1.64-1.32,1.78v.58h4.89Z"/>
              <path id="_R_G_L_0_G_L_0_G_D_3_P_0" data-name=" R G L 0 G L 0 G D 3 P 0" class="cls-3" d="m25.73,45.05v-.58c-1.04-.14-1.26-.35-1.82-1.81-1.07-2.85-2.1-5.74-3.15-8.64l-.84.22-3.39,8.53c-.54,1.39-.74,1.57-1.83,1.71l-.02.58h3.7v-.58c-1.2-.15-1.24-.38-1.01-1.18.2-.66.42-1.26.6-1.77h3.17c.25.68.5,1.38.66,1.87.26.73.18.93-.79,1.08v.58h4.73Zm-4.91-4.41h-2.58c.43-1.18.84-2.37,1.3-3.58h.05l1.22,3.58Z"/>
              <path id="_R_G_L_0_G_L_0_G_D_4_P_0" data-name=" R G L 0 G L 0 G D 4 P 0" class="cls-3" d="m38.01,34.26h-4.03v.58c1.21.07,1.55.35,1.64,1.06.03.48.13,1.26.13,2.72v2.92h-.07l-6.31-7.28h-3.06v.58c.7.07,1.08.2,1.37.6.31.38.35.7.35,1.78v3.47c0,1.46-.1,2.19-.17,2.74-.06.71-.44.98-1.37,1.04v.58h4.05v-.58c-1.22-.05-1.5-.37-1.59-1.1-.05-.5-.13-1.23-.13-2.69v-3.73h.05l6.88,8.26h.79v-6.58c0-1.46.1-2.24.15-2.75.08-.76.43-.98,1.32-1.03v-.58Z"/>
              <path id="_R_G_L_0_G_L_0_G_D_5_P_0" data-name=" R G L 0 G L 0 G D 5 P 0" class="cls-3" d="m45.58,36.83c-.13-1.02-.25-1.76-.31-2.37-.3-.12-1.24-.45-2.3-.45-2.35,0-3.79,1.42-3.79,3.25,0,1.59,1.18,2.49,2.88,3.35,1.24.66,1.97,1.28,1.97,2.26,0,1.04-.64,1.74-1.65,1.74-1.59,0-2.56-1.86-2.89-2.92l-.58.18c.12,1.01.33,2.41.48,2.82.23.1.54.23,1.01.36.5.15,1.07.23,1.67.23,2.41,0,4.01-1.48,4.01-3.37,0-1.65-1.19-2.57-2.93-3.42-1.45-.73-2.05-1.26-2.05-2.17s.68-1.64,1.61-1.64c1.35,0,1.97,1.22,2.31,2.27l.56-.14Z"/>
              <path id="_R_G_L_0_G_L_0_G_D_6_P_0" data-name=" R G L 0 G L 0 G D 6 P 0" class="cls-3" d="m51.99,45.05v-.58c-1.22-.12-1.37-.23-1.37-1.63v-6.35c0-1.41.15-1.53,1.37-1.64v-.58h-4.96v.58c1.22.12,1.37.23,1.37,1.64v6.35c0,1.4-.15,1.51-1.37,1.63v.58h4.96Z"/>
              <path id="_R_G_L_0_G_L_0_G_D_7_P_0" data-name=" R G L 0 G L 0 G D 7 P 0" class="cls-3" d="m58.99,34.01c-3.78,0-5.8,2.8-5.8,5.66,0,3.19,2.3,5.62,5.6,5.62,3.11,0,5.67-2.17,5.67-5.76,0-3.29-2.46-5.52-5.47-5.52Zm-.3.7c1.9,0,3.24,1.99,3.24,5.29,0,3.05-1.27,4.6-2.84,4.6-2.12,0-3.37-2.41-3.37-5.24s1.3-4.64,2.97-4.64Z"/>
              <path id="_R_G_L_0_G_L_0_G_D_8_P_0" data-name=" R G L 0 G L 0 G D 8 P 0" class="cls-3" d="m76.9,34.26h-4.03v.58c1.2.07,1.55.35,1.64,1.06.03.48.13,1.26.13,2.72v2.92h-.07l-6.31-7.28h-3.06v.58c.7.07,1.08.2,1.37.6.31.38.35.7.35,1.78v3.47c0,1.46-.1,2.19-.17,2.74-.06.71-.44.98-1.37,1.04v.58h4.05v-.58c-1.22-.05-1.51-.37-1.59-1.1-.05-.5-.13-1.23-.13-2.69v-3.73h.05l6.88,8.26h.79v-6.58c0-1.46.1-2.24.15-2.75.08-.76.43-.98,1.32-1.03v-.58Z"/>
              <path id="_R_G_L_0_G_L_0_G_D_9_P_0" data-name=" R G L 0 G L 0 G D 9 P 0" class="cls-1" d="m.48.45c0-.25.2-.45.45-.45h34.34c.24,0,.45.2.45.45v30.49c0,.25-.2.45-.45.45H.93c-.25,0-.45-.2-.45-.45V.45Z"/>
              <path id="_R_G_L_0_G_L_0_G_D_10_P_0" data-name=" R G L 0 G L 0 G D 10 P 0" class="cls-2" d="m2.22,2.2c0-.25.2-.45.45-.45h30.86c.25,0,.45.2.45.45v27c0,.25-.2.45-.45.45H2.67c-.25,0-.45-.2-.45-.45V2.2Z"/>
              <path id="_R_G_L_0_G_L_0_G_D_11_P_0" data-name=" R G L 0 G L 0 G D 11 P 0" class="cls-3" d="m14.1,15.57v9.89c0,.22-.06.35-.25.35s-.27-.14-.27-.35v-1.3h-.49c-.35,0-1.48.87-2.21,1.43h0c-.23.18-.42.32-.52.39-.79-.46-1.78-.92-2.52-1.17-.13.12-.25.24-.36.34h0c-.23.21-.41.38-.54.51-.05.05-.09.09-.12.12-.11.12-.17.18-.23.18-.14,0-.3-.16-.3-.3s.3-.46,1.7-1.89c.95-.98,1.34-2.15,1.34-3.94,0-2.97-1.28-5.51-2.76-5.51-.49,0-.74.19-.82.68-.02.25-.14.33-.25.33-.22,0-.33-.36-.33-.96,0-1.36.96-2.45,2.13-2.45.54,0,.92.24,1.24.45.27.18.5.33.78.29v-1.99c0-.52-.19-.95-.58-1.28-.33-.27-2.02-1.42-2.65-1.42-.12,0-.21.03-.29.05-.06.02-.12.03-.18.03-.08,0-.11-.02-.11-.08,0-.07.04-.12.16-.26h0s.03-.04.05-.06l2.16-2.13s.04-.03.05-.04c.08-.06.13-.1.22-.1.44,0,1.65.82,2.63,1.49.68.46,1.26.86,1.41.86.26,0,1.04-.48,1.88-1,.99-.62,2.07-1.29,2.5-1.29.2,0,.41.17,1.81,1.3h0c.09.08.18.15.28.23.07.05.15.12.25.2h0c.29.24.69.58,1.06.8.44.27.46.32.46.84.27-.06.58-.27,2.29-1.67.49-.4,1.94-1.58,2.05-1.58.14,0,1.34.49,3.12,1.22.52.22.6.27.6.6v14.09c0,.46.06.63.25.79.82.71,1.31.98,1.59.98.08,0,.19-.03.27-.11.14-.19.17-.22.25-.22s.17.11.17.22c0,.17-1.23,1.69-2.49,2.67-.76-.27-2.07-1.17-2.81-1.93-.25-.27-.3-.33-.3-.79v-10.09c0-1.17.38-1.96,1.75-3.78.71-.92.76-1.2.62-1.2-.07,0-.68.42-1.24.81-.38.26-.73.5-.86.58-.06-.03-.12-.07-.18-.1-1.34-.76-1.77-1.01-2.53-1.01-.43,0-.74.22-.74.49v16.75c0,.22-.11.38-.27.38-.14,0-.22-.14-.22-.35v-1.26c-.77.12-1.44.75-1.9,1.16-.24.22-.41.38-.51.38-.3,0-2.08-2.12-2.08-2.29v-8.01h-3.19Zm-.5-6.94c0-.55-.06-.73-.16-.73-.24,0-1.12.55-1.12.73v7.54c0,3.66-.42,4.1-1.36,5.09-.02.02-.04.04-.06.06-.44.46-.54.57-.87.96.58.79,2.48,1.14,3.58,1.09v-14.73h0Zm3.69,4.36v-3c0-.57-2.05-2.12-2.73-2.12-.3,0-.46.19-.46.55v4.57h3.19Zm4.48-3.87c0-.06-.03-.08-.11-.08s-.22.06-.3.11l-.62.38c-.36.22-.47.32-.47.49v2.72c0,.19.25.32.44.32h1.07v-3.95Zm-1.04,6.4c-.3,0-.44.22-.44.63v5.58c0,1.09.46,1.61,1.47,1.69v-7.9h-1.03Z"/>
            </g>
          </g>
        </g>
      </g>
    </g>
  </g>
</svg>