<svg width="177" height="73" viewBox="0 0 177 73" fill="none" xmlns="http://www.w3.org/2000/svg">
<path fill-rule="evenodd" clip-rule="evenodd" d="M59.267 62.88C42.2148 49.8401 21.394 42.779 0 41.7356C20.7382 39.284 40.9377 23.821 57.6882 10.9982L57.6884 10.9981L57.7713 10.9346C58.273 10.5505 58.7716 10.1689 59.267 9.79C67.2971 3.65 77.327 0 88.217 0C99.1071 0 109.137 3.65 117.167 9.79C117.667 10.1722 118.17 10.5573 118.676 10.9448L118.746 10.9982L118.746 10.9983C135.496 23.8211 155.696 39.284 176.434 41.7356C155.04 42.779 134.219 49.8401 117.167 62.88C109.137 69.02 99.1071 72.67 88.217 72.67C77.327 72.67 67.2971 69.02 59.267 62.88Z" fill="#F4F4F5"/>
</svg>
