<?xml version="1.0" encoding="UTF-8"?>
<svg id="Layer_2" data-name="Layer 2" xmlns="http://www.w3.org/2000/svg" viewBox="0 0 23.43 23.42">
  <defs>
    <style>
      .cls-1 {
        fill: #fff;
        stroke-width: 0px;
      }
    </style>
  </defs>
  <g id="Layer_1-2" data-name="Layer 1">
    <g>
      <path class="cls-1" d="m7.3,19.31c-1.68,0-3.35,0-5.03,0C.84,19.3,0,18.46,0,17.02,0,12.1,0,7.18,0,2.26,0,.86.85,0,2.24,0c2.24,0,4.48,0,6.72,0,1.27,0,2.06.69,2.22,1.96.49,3.9.97,7.79,1.46,11.69.2,1.57.39,3.14.59,4.71.08.64-.17.94-.81.94-1.71,0-3.41,0-5.12,0Zm-2.06-8.92c.59,0,1.15-.02,1.71.01.1,0,.25.18.28.31.14.59.24,1.19.37,1.79.1.46.4.68.81.61.39-.07.63-.42.54-.86-.44-2.22-.9-4.44-1.34-6.66-.09-.46-.36-.68-.82-.68-.33,0-.67,0-1,0-.71,0-.88.15-1.02.84-.26,1.31-.53,2.62-.79,3.93-.17.86-.36,1.73-.5,2.6-.09.55.28.92.78.83.38-.07.51-.35.58-.68.14-.67.27-1.34.41-2.04Z"/>
      <path class="cls-1" d="m11.1,23.42c1.02-1.17,1.96-2.25,2.91-3.32.49-.56.67-1.19.58-1.94-.57-4.47-1.12-8.95-1.68-13.42-.02-.16-.03-.33-.04-.55.18,0,.34-.02.5-.02,2.55,0,5.09,0,7.64,0,1.61,0,2.42.82,2.42,2.42,0,4.83,0,9.66,0,14.49,0,1.53-.82,2.34-2.34,2.35-3.16,0-6.31,0-9.47,0h-.52Zm6.75-13.03c-.67,0-1.31,0-1.95,0-.39,0-.68.17-.74.59-.05.39.16.64.61.76.1.03.24.09.28.17.48.96.95,1.92,1.45,2.95-.39.32-.88.71-1.35,1.11-.37.32-.42.72-.14,1.03.25.28.64.3.99.03.53-.41,1.04-.84,1.57-1.27.52.41,1.02.8,1.52,1.19.45.35.87.34,1.12,0,.26-.34.15-.74-.29-1.09-.46-.36-.92-.73-1.3-1.03.5-.96.97-1.84,1.42-2.73.11-.22.18-.37.46-.41.37-.05.55-.32.53-.68-.02-.36-.24-.59-.61-.63-.2-.02-.4-.02-.59-.02-.51,0-1.02,0-1.54,0-.11-.57.14-1.34-.72-1.34-.86,0-.62.76-.73,1.34Z"/>
      <path class="cls-1" d="m8.05,20.7h3.56c-.76.83-1.46,1.62-2.19,2.39-.05.06-.28.02-.38-.05-.83-.55-.96-1.41-.98-2.34Z"/>
      <path class="cls-1" d="m6.89,8.99h-1.38c.17-.86.34-1.69.52-2.52.02-.07.12-.16.2-.18.03-.01.15.1.16.17.17.83.33,1.66.5,2.53Z"/>
      <path class="cls-1" d="m19.81,11.79c-.42.7-.78,1.32-1.15,1.93-.05,0-.11,0-.16,0-.35-.62-.7-1.24-1.1-1.93h2.41Z"/>
    </g>
  </g>
</svg>