<?xml version="1.0" encoding="UTF-8"?>
<svg id="Layer_2" data-name="Layer 2" xmlns="http://www.w3.org/2000/svg" xmlns:xlink="http://www.w3.org/1999/xlink" viewBox="0 0 69.2 69.2">
  <defs>
    <style>
      .cls-1 {
        fill: #fff;
        stroke-width: 0px;
      }

      .cls-2 {
        fill: #d60000;
        stroke: url(#_Безымянный_градиент_15);
        stroke-miterlimit: 10;
      }
    </style>
    <linearGradient id="_Безымянный_градиент_15" data-name="Безымянный градиент 15" x1="0" y1="34.6" x2="69.2" y2="34.6" gradientUnits="userSpaceOnUse">
      <stop offset=".1" stop-color="#f8e263"/>
      <stop offset=".15" stop-color="#f9e04a"/>
      <stop offset=".19" stop-color="#fae033"/>
      <stop offset=".23" stop-color="#fbe660"/>
      <stop offset=".3" stop-color="#fcf1a4"/>
      <stop offset=".36" stop-color="#fdf8d5"/>
      <stop offset=".4" stop-color="#fefdf3"/>
      <stop offset=".43" stop-color="#fff"/>
      <stop offset=".43" stop-color="#fefef8"/>
      <stop offset=".44" stop-color="#fefce7"/>
      <stop offset=".45" stop-color="#fef9ca"/>
      <stop offset=".46" stop-color="#fdf4a3"/>
      <stop offset=".47" stop-color="#fcee6f"/>
      <stop offset=".48" stop-color="#fbe732"/>
      <stop offset=".49" stop-color="#fbe203"/>
      <stop offset=".51" stop-color="#833102"/>
      <stop offset=".73" stop-color="#eebf03"/>
      <stop offset="1" stop-color="#8a3d01"/>
    </linearGradient>
  </defs>
  <g id="Layer_1-2" data-name="Layer 1">
    <g>
      <circle class="cls-2" cx="34.6" cy="34.6" r="34.1"/>
      <path id="_R_G_L_0_G_L_0_G_D_11_P_0" data-name=" R G L 0 G L 0 G D 11 P 0" class="cls-1" d="m28.53,33.82v17.36c0,.38-.1.62-.44.62s-.48-.24-.48-.62v-2.29h-.86c-.61,0-2.61,1.53-3.87,2.51h0c-.4.31-.74.56-.92.69-1.39-.81-3.12-1.62-4.42-2.05-.23.22-.44.41-.63.59h0c-.41.37-.72.67-.94.89-.08.08-.15.15-.22.22-.19.2-.3.31-.4.31-.24,0-.53-.28-.53-.53s.53-.81,2.98-3.31c1.67-1.72,2.35-3.77,2.35-6.92,0-5.22-2.25-9.67-4.84-9.67-.86,0-1.29.34-1.43,1.2-.04.44-.24.58-.44.58-.38,0-.58-.63-.58-1.68,0-2.39,1.68-4.3,3.75-4.3.96,0,1.61.42,2.17.79.48.31.89.58,1.37.51v-3.49c0-.91-.34-1.67-1.01-2.25-.58-.48-3.54-2.49-4.65-2.49-.21,0-.37.05-.51.08-.11.03-.2.06-.31.06-.14,0-.2-.04-.2-.14,0-.12.08-.21.29-.46h0s.06-.07.09-.11l3.79-3.73s.06-.05.09-.07c.13-.1.22-.17.39-.17.77,0,2.89,1.44,4.62,2.61,1.2.82,2.22,1.5,2.47,1.5.46,0,1.82-.84,3.3-1.76,1.74-1.08,3.63-2.26,4.39-2.26.36,0,.72.3,3.18,2.28h.01c.15.13.32.27.49.41.12.09.27.22.44.36h0c.51.43,1.22,1.01,1.87,1.41.77.48.82.57.82,1.48.48-.1,1.01-.48,4.03-2.92.86-.71,3.4-2.78,3.6-2.78.24,0,2.35.86,5.48,2.15.91.38,1.05.48,1.05,1.05v24.73c0,.82.1,1.1.44,1.38,1.43,1.24,2.31,1.72,2.78,1.72.14,0,.34-.06.48-.2.24-.34.3-.38.44-.38s.3.2.3.38c0,.3-2.16,2.96-4.36,4.7-1.34-.48-3.64-2.06-4.94-3.39-.44-.48-.52-.58-.52-1.38v-17.71c0-2.05.66-3.44,3.07-6.64,1.25-1.62,1.34-2.11,1.1-2.11-.12,0-1.2.75-2.19,1.42-.66.46-1.28.89-1.51,1.02-.11-.06-.21-.12-.31-.18-2.35-1.34-3.11-1.78-4.45-1.78-.76,0-1.29.38-1.29.86v29.42c0,.38-.2.67-.48.67-.24,0-.38-.24-.38-.61v-2.21c-1.36.22-2.54,1.31-3.33,2.05-.41.39-.72.67-.89.67-.52,0-3.65-3.73-3.65-4.02v-14.06h-5.61Zm-.87-12.19c0-.96-.1-1.29-.28-1.29-.43,0-1.98.96-1.98,1.29v13.24c0,6.43-.73,7.2-2.39,8.94-.04.03-.06.06-.1.1-.77.82-.96,1.01-1.53,1.68,1.01,1.38,4.36,2.01,6.28,1.91v-25.87h0Zm6.48,7.65v-5.26c0-1.01-3.6-3.73-4.79-3.73-.53,0-.82.33-.82.96v8.03h5.61Zm7.87-6.8c0-.1-.05-.14-.2-.14s-.38.1-.53.2l-1.1.67c-.63.38-.82.57-.82.86v4.78c0,.33.44.57.77.57h1.88v-6.94Zm-1.83,11.24c-.53,0-.77.39-.77,1.1v9.81c0,1.92.82,2.83,2.59,2.97v-13.87h-1.81Z"/>
    </g>
  </g>
</svg>