<?xml version="1.0" encoding="UTF-8"?>
<svg id="Layer_2" data-name="Layer 2" xmlns="http://www.w3.org/2000/svg" viewBox="0 0 71.3 42">
  <defs>
    <style>
      .cls-1 {
        fill: #cfae71;
      }

      .cls-1, .cls-2, .cls-3 {
        stroke-width: 0px;
      }

      .cls-2 {
        fill: #b92c2c;
      }

      .cls-3 {
        fill: #fff;
      }
    </style>
  </defs>
  <g id="Layer_1-2" data-name="Layer 1">
    <g id="_R_G" data-name=" R G">
      <g id="_R_G_L_0_G" data-name=" R G L 0 G">
        <g id="_R_G_L_0_G_L_0_G" data-name=" R G L 0 G L 0 G">
          <path id="_R_G_L_0_G_L_0_G_D_0_P_0" data-name=" R G L 0 G L 0 G D 0 P 0" class="cls-3" d="m47.92,13.97c3.51-.52,4.29-2.35,4.29-5.47v-3.29C52.2,1.74,49.44,0,43.88,0s-8.33,1.74-8.33,5.2v3.88c0,2.72.6,4.15,3.81,4.69-3.21.72-3.81,2.71-3.81,5.62v4.26c0,3.5,2.77,5.24,8.33,5.24s8.32-1.74,8.32-5.24v-4.22c0-3.21-.77-5.03-4.29-5.47Zm-4.08-1.82c-1.22,0-1.83-.59-1.83-1.74v-5.54c0-1.14.6-1.68,1.83-1.68s1.87.57,1.87,1.68v5.54c0,1.15-.62,1.74-1.87,1.74Zm0,13.4c-1.22,0-1.83-.59-1.83-1.74v-6.27c0-1.2.6-1.78,1.83-1.78s1.87.59,1.87,1.78v6.27c0,1.15-.62,1.74-1.87,1.74Z"/>
          <path id="_R_G_L_0_G_L_0_G_D_1_P_0" data-name=" R G L 0 G L 0 G D 1 P 0" class="cls-3" d="m67.01,13.97c3.52-.52,4.29-2.35,4.29-5.47v-3.29C71.3,1.74,68.53,0,62.97,0s-8.34,1.74-8.34,5.2v3.88c0,2.72.6,4.15,3.82,4.69-3.21.72-3.82,2.71-3.82,5.62v4.26c0,3.5,2.77,5.24,8.34,5.24s8.33-1.74,8.33-5.24v-4.22c0-3.21-.77-5.03-4.29-5.47Zm-4.08-1.82c-1.23,0-1.83-.59-1.83-1.74v-5.54c0-1.14.6-1.68,1.83-1.68s1.87.57,1.87,1.68v5.54c.02,1.15-.6,1.74-1.87,1.74Zm0,13.4c-1.23,0-1.83-.59-1.83-1.74v-6.27c0-1.2.6-1.78,1.83-1.78s1.87.59,1.87,1.78v6.27c.02,1.15-.6,1.74-1.87,1.74Z"/>
          <path id="_R_G_L_0_G_L_0_G_D_2_P_0" data-name=" R G L 0 G L 0 G D 2 P 0" class="cls-3" d="m12.9,41.77v-.54c-1.2-.13-1.27-.23-1.3-1.65l-.14-5.75c-.03-1.28.03-1.4,1.25-1.52v-.54h-3.08l-3,6.74-2.96-6.74H.51v.54c1.32.12,1.43.34,1.3,2.09l-.24,3.03c-.11,1.61-.23,2.42-.32,2.91-.09.54-.38.82-1.24.89v.54h3.68v-.54c-1.01-.09-1.32-.23-1.38-.92-.06-.48-.06-1.2,0-2.48l.18-4.02h.06l3.12,7.85h.43l3.38-8h.08l.03,5.92c.01,1.41-.08,1.52-1.22,1.65v.54h4.54Z"/>
          <path id="_R_G_L_0_G_L_0_G_D_3_P_0" data-name=" R G L 0 G L 0 G D 3 P 0" class="cls-3" d="m23.86,41.77v-.54c-.97-.13-1.17-.32-1.69-1.68-.99-2.65-1.94-5.32-2.92-8.01l-.78.2-3.14,7.91c-.5,1.29-.69,1.46-1.7,1.58l-.02.54h3.43v-.54c-1.12-.14-1.15-.36-.94-1.09.19-.61.39-1.17.55-1.64h2.94c.23.63.46,1.28.61,1.74.24.68.17.86-.73,1v.54h4.38Zm-4.55-4.09h-2.39c.4-1.09.78-2.2,1.21-3.32h.05l1.13,3.32Z"/>
          <path id="_R_G_L_0_G_L_0_G_D_4_P_0" data-name=" R G L 0 G L 0 G D 4 P 0" class="cls-3" d="m35.24,31.77h-3.74v.54c1.12.06,1.44.32,1.52.98.03.45.12,1.17.12,2.52v2.71h-.06l-5.85-6.75h-2.84v.54c.65.06,1,.19,1.27.55.29.36.32.65.32,1.65v3.21c0,1.35-.09,2.03-.16,2.54-.06.66-.41.91-1.27.97v.54h3.75v-.54c-1.13-.05-1.39-.34-1.47-1.02-.04-.46-.12-1.14-.12-2.49v-3.46h.04l6.38,7.66h.73v-6.11c0-1.35.09-2.07.14-2.55.08-.71.4-.91,1.22-.95v-.54Z"/>
          <path id="_R_G_L_0_G_L_0_G_D_5_P_0" data-name=" R G L 0 G L 0 G D 5 P 0" class="cls-3" d="m42.26,34.15c-.12-.95-.23-1.63-.29-2.2-.27-.11-1.15-.42-2.13-.42-2.17,0-3.51,1.32-3.51,3.01,0,1.48,1.09,2.31,2.67,3.11,1.15.62,1.82,1.18,1.82,2.09,0,.97-.6,1.61-1.53,1.61-1.47,0-2.38-1.72-2.68-2.71l-.54.17c.11.94.31,2.23.45,2.62.22.09.5.22.94.34.46.14.99.22,1.55.22,2.24,0,3.72-1.37,3.72-3.12,0-1.53-1.1-2.39-2.71-3.17-1.35-.68-1.9-1.17-1.9-2.02s.63-1.52,1.49-1.52c1.25,0,1.82,1.14,2.15,2.11l.52-.13Z"/>
          <path id="_R_G_L_0_G_L_0_G_D_6_P_0" data-name=" R G L 0 G L 0 G D 6 P 0" class="cls-3" d="m48.21,41.77v-.54c-1.14-.11-1.27-.22-1.27-1.51v-5.89c0-1.31.14-1.41,1.27-1.52v-.54h-4.6v.54c1.14.11,1.27.22,1.27,1.52v5.89c0,1.3-.14,1.4-1.27,1.51v.54h4.6Z"/>
          <path id="_R_G_L_0_G_L_0_G_D_7_P_0" data-name=" R G L 0 G L 0 G D 7 P 0" class="cls-3" d="m54.69,31.54c-3.51,0-5.38,2.6-5.38,5.24,0,2.95,2.13,5.21,5.2,5.21,2.88,0,5.26-2.02,5.26-5.34,0-3.05-2.28-5.12-5.07-5.12Zm-.27.65c1.76,0,3,1.84,3,4.91,0,2.83-1.18,4.26-2.64,4.26-1.96,0-3.12-2.23-3.12-4.86s1.21-4.31,2.76-4.31Z"/>
          <path id="_R_G_L_0_G_L_0_G_D_8_P_0" data-name=" R G L 0 G L 0 G D 8 P 0" class="cls-3" d="m71.3,31.77h-3.74v.54c1.12.06,1.44.32,1.52.98.03.45.12,1.17.12,2.52v2.71h-.06l-5.85-6.75h-2.84v.54c.65.06,1,.19,1.27.55.29.36.32.65.32,1.65v3.21c0,1.35-.09,2.03-.16,2.54-.06.66-.41.91-1.27.97v.54h3.75v-.54c-1.13-.05-1.4-.34-1.47-1.02-.05-.46-.12-1.14-.12-2.49v-3.46h.04l6.38,7.66h.73v-6.11c0-1.35.09-2.07.14-2.55.08-.71.4-.91,1.22-.95v-.54Z"/>
          <path id="_R_G_L_0_G_L_0_G_D_9_P_0" data-name=" R G L 0 G L 0 G D 9 P 0" class="cls-1" d="m.45.42c0-.23.19-.42.42-.42h31.84c.23,0,.42.19.42.42v28.27c0,.23-.19.42-.42.42H.86c-.23,0-.42-.19-.42-.42V.42Z"/>
          <path id="_R_G_L_0_G_L_0_G_D_10_P_0" data-name=" R G L 0 G L 0 G D 10 P 0" class="cls-2" d="m2.06,2.04c0-.23.19-.42.42-.42h28.61c.23,0,.42.19.42.42v25.04c0,.23-.19.42-.42.42H2.48c-.23,0-.42-.19-.42-.42V2.04Z"/>
          <path id="_R_G_L_0_G_L_0_G_D_11_P_0" data-name=" R G L 0 G L 0 G D 11 P 0" class="cls-3" d="m13.07,14.44v9.17c0,.2-.05.33-.23.33s-.25-.13-.25-.33v-1.21h-.46c-.32,0-1.38.81-2.04,1.32h0c-.21.16-.39.3-.49.36-.73-.43-1.65-.85-2.33-1.08-.12.12-.23.22-.33.31h0c-.22.2-.38.35-.5.47-.04.04-.08.08-.12.12-.1.11-.16.16-.21.16-.13,0-.28-.15-.28-.28s.28-.43,1.57-1.75c.88-.91,1.24-1.99,1.24-3.66,0-2.75-1.19-5.11-2.56-5.11-.45,0-.68.18-.76.63-.02.23-.13.3-.23.3-.2,0-.3-.33-.3-.89,0-1.26.89-2.27,1.98-2.27.5,0,.85.22,1.15.42.25.16.47.3.72.27v-1.84c0-.48-.18-.88-.53-1.19-.3-.25-1.87-1.31-2.46-1.31-.11,0-.19.03-.27.04-.06.01-.11.03-.16.03-.07,0-.1-.02-.1-.07,0-.06.04-.11.15-.24h0s.03-.04.05-.06l2-1.97s.03-.03.05-.04c.07-.05.12-.09.2-.09.4,0,1.53.76,2.44,1.38.63.43,1.17.79,1.31.79.24,0,.96-.45,1.74-.93.92-.57,1.92-1.2,2.32-1.2.19,0,.38.16,1.68,1.2h0c.08.07.17.14.26.22.06.05.14.12.23.19h0c.27.23.64.53.99.75.41.25.43.3.43.78.25-.05.53-.25,2.13-1.54.45-.37,1.8-1.47,1.9-1.47.13,0,1.24.46,2.89,1.14.48.2.56.25.56.55v13.06c0,.43.05.58.23.73.76.66,1.22.91,1.47.91.07,0,.18-.03.25-.1.13-.18.16-.2.23-.2s.16.1.16.2c0,.16-1.14,1.56-2.3,2.48-.71-.25-1.92-1.09-2.61-1.79-.23-.25-.27-.3-.27-.73v-9.35c0-1.08.35-1.82,1.62-3.51.66-.86.71-1.11.58-1.11-.06,0-.63.39-1.15.75-.35.24-.68.47-.8.54-.06-.03-.11-.06-.16-.09-1.24-.71-1.64-.94-2.35-.94-.4,0-.68.2-.68.46v15.53c0,.2-.1.35-.25.35-.13,0-.2-.13-.2-.32v-1.17c-.72.12-1.34.69-1.76,1.08-.22.21-.38.36-.47.36-.27,0-1.93-1.97-1.93-2.12v-7.43h-2.96Zm-.46-6.44c0-.51-.05-.68-.15-.68-.23,0-1.04.51-1.04.68v6.99c0,3.4-.39,3.8-1.26,4.72-.02.01-.03.03-.05.05-.41.43-.5.53-.81.89.53.73,2.3,1.06,3.32,1.01v-13.66h0Zm3.42,4.04v-2.78c0-.53-1.9-1.97-2.53-1.97-.28,0-.43.17-.43.51v4.24h2.96Zm4.16-3.59c0-.05-.03-.07-.1-.07s-.2.05-.28.1l-.58.35c-.33.2-.43.3-.43.46v2.52c0,.17.23.3.41.3h.99v-3.66Zm-.96,5.93c-.28,0-.41.21-.41.58v5.18c0,1.01.43,1.49,1.37,1.57v-7.33h-.96Z"/>
        </g>
      </g>
    </g>
  </g>
</svg>